<svg width="190" height="78" viewBox="0 0 190 78" fill="none" xmlns="http://www.w3.org/2000/svg">
<path fill-rule="evenodd" clip-rule="evenodd" d="M114.503 14C114.771 14 114.988 14.2177 114.989 14.4872L115.006 17.9066C115.019 20.607 115.032 23.3072 115.045 26.0076L115.079 32.8784C115.085 34.0668 115.379 34.9954 115.835 36.0825C118.031 41.3103 121.177 46.0069 125.184 50.0417C127.44 52.314 129.906 54.3104 132.556 56.0164C132.696 56.1063 132.781 56.2611 132.781 56.428V63.2373C132.781 63.6081 132.387 63.8449 132.063 63.6684C123.302 58.8952 116.104 51.5855 111.439 42.7169L111.39 42.8072C111.374 42.777 111.358 42.7472 111.342 42.7169C106.677 51.5855 99.479 58.8952 90.7179 63.6684C90.3941 63.8449 90 63.6081 90 63.2373V58.0033C90 56.8798 90.5456 55.8252 91.4646 55.1878C93.6474 53.674 95.6965 51.9557 97.5972 50.0417C101.604 46.0069 104.749 41.3103 106.945 36.0825C107.402 34.9954 107.696 34.0668 107.702 32.8784L107.735 26.0076C107.749 23.3072 107.762 20.607 107.775 17.9066L107.777 17.4098C107.786 15.524 109.307 14 111.18 14H114.503ZM96.9026 25.6505C98.7819 25.6505 100.305 27.1845 100.306 29.0769L100.306 40.14C100.306 41.4918 99.218 42.5876 97.8754 42.5876H93.9864C93.7179 42.5876 93.5002 42.3685 93.5002 42.0981V26.14C93.5002 25.8696 93.7179 25.6505 93.9864 25.6505H96.9026ZM128.697 25.6505C128.966 25.6505 129.183 25.8696 129.183 26.14V42.0981C129.183 42.3685 128.966 42.5876 128.697 42.5876H124.808C123.466 42.5876 122.377 41.4918 122.377 40.14L122.378 29.0769C122.378 27.1845 123.902 25.6505 125.781 25.6505H128.697ZM189.465 63.7346H163.019C162.751 63.7346 162.533 63.5155 162.533 63.2451V60.3081C162.533 58.4156 164.056 56.8815 165.936 56.8815H189.465C189.734 56.8815 189.951 57.1006 189.951 57.371V63.2451C189.951 63.5155 189.734 63.7346 189.465 63.7346ZM183.777 34.168C184.046 34.168 184.264 34.3871 184.264 34.6575V40.5317C184.264 40.8021 184.046 41.0212 183.777 41.0212H168.318C168.05 41.0212 167.832 40.8021 167.832 40.5317V34.6575C167.832 34.3871 168.05 34.168 168.318 34.168H183.777ZM178.106 14C179.139 14 180.066 14.6546 180.402 15.6385C181.876 19.9643 184.321 23.9283 187.627 27.257C188.033 27.6658 188.448 28.0611 188.873 28.4431C189.593 29.0904 190 30.0182 190 30.9897V36.8729C190 37.2573 189.579 37.4936 189.256 37.2882C183.784 33.8087 179.28 28.9264 176.242 23.1428C173.204 28.9261 168.7 33.8086 163.228 37.2882C162.905 37.4936 162.484 37.2573 162.484 36.8729V29.6404C162.484 29.494 162.55 29.3562 162.662 29.2631C163.42 28.6341 164.154 27.9658 164.858 27.257C168.488 23.6014 171.081 19.1796 172.489 14.354C172.55 14.1448 172.739 14 172.955 14H178.106ZM183.826 53.8465H181.881C181.613 53.8465 181.395 53.6274 181.395 53.357V44.3499C181.395 44.0795 181.613 43.8604 181.881 43.8604H186.743C187.011 43.8604 187.229 44.0795 187.229 44.3499V50.4199C187.229 52.3123 185.705 53.8465 183.826 53.8465ZM178.624 53.8465H173.763C173.494 53.8465 173.277 53.6274 173.277 53.357V44.3499C173.277 44.0795 173.494 43.8604 173.763 43.8604H178.624C178.893 43.8604 179.11 44.0795 179.11 44.3499V53.357C179.11 53.6274 178.893 53.8465 178.624 53.8465ZM170.603 53.8465H165.741C165.473 53.8465 165.255 53.6274 165.255 53.357V44.3499C165.255 44.0795 165.473 43.8604 165.741 43.8604H170.603C170.871 43.8604 171.089 44.0795 171.089 44.3499V53.357C171.089 53.6274 170.871 53.8465 170.603 53.8465ZM154.171 29.2239H148.921V22.8602C148.921 22.5898 149.138 22.3707 149.407 22.3707H154.171V29.2239ZM154.171 42.9303H148.921V36.5666C148.921 36.2962 149.138 36.0771 149.407 36.0771H154.171V42.9303ZM160.491 15.4686H154.171H148.921H145.323C143.444 15.4686 141.92 17.0027 141.92 18.8952V42.9303V46.9933C141.911 52.8882 140.296 58.1714 137.202 62.9794C136.993 63.3049 137.228 63.7346 137.613 63.7346H144.322C144.504 63.7346 144.672 63.632 144.755 63.4685C146.853 59.335 148.204 54.9988 148.629 50.2322C148.652 49.9787 148.861 49.7835 149.114 49.7835H154.171V63.2451C154.171 63.5155 154.389 63.7346 154.657 63.7346H160.491C160.759 63.7346 160.977 63.5155 160.977 63.2451V15.9581C160.977 15.6877 160.759 15.4686 160.491 15.4686Z" fill="#FF1C6D"/>
<path fill-rule="evenodd" clip-rule="evenodd" d="M72.5579 51.2194C73.0304 50.0267 73.4376 48.7933 73.769 47.5538C76.0634 38.9633 74.883 30.0334 70.4444 22.4081C66.0041 14.7795 58.8351 9.36951 50.2575 7.17465C41.8293 5.01807 33.0936 6.15823 25.6604 10.3856C18.183 14.6379 12.8382 21.5789 10.6106 29.9302L10.5878 30.0082L10.4364 30.4979L5.15512 50.2976C4.86356 51.3915 5.511 52.5201 6.59902 52.8136L8.76886 53.3991C12.0323 54.2793 13.9749 57.6651 13.0997 60.947L12.5706 62.9308C12.4292 63.4609 12.5015 64.0143 12.7742 64.4897C13.0469 64.9649 13.4871 65.305 14.0139 65.4471L33.7413 70.7687C38.9244 72.1667 44.4081 72.2623 49.6007 71.045C52.7481 70.3087 55.7723 69.1038 58.5907 67.4636C61.2823 65.8955 63.7334 63.9556 65.8752 61.6981C68.7624 58.6554 71.0107 55.1298 72.5579 51.2194ZM51.265 3.19357C60.9096 5.66145 68.9731 11.7481 73.97 20.3325C78.9647 28.9137 80.2944 38.9598 77.7135 48.6194C77.3417 50.0127 76.884 51.3986 76.3534 52.7388C74.6115 57.1401 72.0805 61.1087 68.8309 64.534C66.4217 67.0731 63.6652 69.2549 60.6378 71.0188C57.4685 72.8632 54.0669 74.2179 50.5273 75.0459C47.8121 75.6825 45.0258 76 42.2365 76C39.0227 76 35.804 75.5783 32.6831 74.7364L12.9557 69.4148C11.3748 68.9884 10.0537 67.9684 9.2357 66.5428C8.41799 65.1171 8.20139 63.4561 8.62515 61.8664L9.15425 59.8828C9.44581 58.7889 8.79837 57.66 7.71065 57.3665L5.54051 56.7813C2.27735 55.9011 0.334436 52.515 1.20998 49.2331L6.52407 29.3162L6.67575 28.8259C9.19616 19.4197 15.2226 11.6021 23.6494 6.80992C32.0038 2.05874 41.8116 0.77435 51.265 3.19357ZM39.1194 27.3397C39.9195 27.3397 40.7327 27.4587 41.5372 27.7092C45.8476 29.0509 48.2603 33.6525 46.9262 37.9873C45.8411 41.5128 42.6113 43.7763 39.1242 43.7763C38.3239 43.7763 37.5106 43.657 36.7062 43.4068C32.3954 42.0651 29.983 37.4635 31.3168 33.1287C32.4019 29.6031 35.632 27.3397 39.1194 27.3397ZM41.2353 28.6903C40.5453 28.4754 39.8336 28.3668 39.1194 28.3668C35.9687 28.3668 33.2249 30.4026 32.2924 33.4323C31.7282 35.2669 31.9073 37.2124 32.7982 38.9111C33.6888 40.6095 35.184 41.8577 37.008 42.4257C37.698 42.6402 38.4097 42.7492 39.1242 42.7492C42.2749 42.7492 45.0181 40.7134 45.9506 37.6837C46.092 37.2246 46.1867 36.7587 46.2351 36.2913C45.1966 38.6313 42.5629 39.8768 40.0679 39.1004C37.374 38.2618 35.8657 35.3859 36.6997 32.6767C37.4498 30.2391 39.8404 28.7734 42.2743 29.1132C41.9406 28.9491 41.5965 28.8028 41.2353 28.6903ZM61.037 21.5984C60.2323 21.3479 59.4193 21.2289 58.619 21.2289C55.1319 21.2289 51.9018 23.4923 50.8167 27.0178C49.4829 31.3527 51.8953 35.9543 56.2057 37.2959C57.0102 37.5461 57.8237 37.6654 58.6238 37.6654C62.1112 37.6654 65.3407 35.402 66.4261 31.8765C67.7599 27.5416 65.3472 22.94 61.037 21.5984ZM58.619 22.256C59.3335 22.256 60.0452 22.3646 60.7352 22.5795C61.0964 22.6919 61.4404 22.8382 61.7739 23.0023C59.3399 22.6625 56.9494 24.1283 56.1992 26.5659C55.3656 29.275 56.8735 32.151 59.5678 32.9896C62.0625 33.7659 64.6962 32.5204 65.735 30.1805C65.6863 30.6479 65.5918 31.1138 65.4502 31.5726C64.518 34.6025 61.7745 36.6383 58.6238 36.6383C57.9096 36.6383 57.1976 36.5294 56.5076 36.3148C54.6836 35.7468 53.1884 34.4987 52.2981 32.8003C51.4072 31.1016 51.2278 29.156 51.7923 27.3214C52.7248 24.2915 55.4686 22.256 58.619 22.256ZM51.2571 45.8944C51.2571 45.8944 54.5111 47.8358 55.5758 47.4153C56.637 46.9966 57.7046 43.3612 57.7046 43.3612L59.3421 42.7339C59.3421 42.7339 58.2435 49.0784 56.4876 49.7933C54.6784 50.5299 49.3434 46.6268 49.3434 46.6268L51.2571 45.8944Z" fill="#FF1C6D"/>
<path d="M73.769 47.5538L74.3486 47.7087L74.3487 47.7086L73.769 47.5538ZM72.5579 51.2194L72.0001 50.9984L72 50.9986L72.5579 51.2194ZM70.4444 22.4081L69.9259 22.7099L69.9259 22.7099L70.4444 22.4081ZM50.2575 7.17465L50.4063 6.59337L50.4063 6.59337L50.2575 7.17465ZM25.6604 10.3856L25.957 10.9072L25.957 10.9072L25.6604 10.3856ZM10.6106 29.9302L11.1868 30.0979L11.1903 30.0848L10.6106 29.9302ZM10.5878 30.0082L11.1611 30.1855L11.1639 30.1759L10.5878 30.0082ZM10.4364 30.4979L9.86322 30.3207L9.85974 30.3319L9.85671 30.3432L10.4364 30.4979ZM5.15512 50.2976L4.57539 50.143L4.57536 50.1431L5.15512 50.2976ZM6.59902 52.8136L6.75534 52.2343L6.75529 52.2343L6.59902 52.8136ZM8.76886 53.3991L8.61255 53.9784L8.61261 53.9784L8.76886 53.3991ZM13.0997 60.947L13.6794 61.1016L13.6794 61.1016L13.0997 60.947ZM12.5706 62.9308L11.9908 62.7762L11.9908 62.7762L12.5706 62.9308ZM12.7742 64.4897L12.2537 64.7883L12.2538 64.7884L12.7742 64.4897ZM14.0139 65.4471L13.8576 66.0264L13.8576 66.0264L14.0139 65.4471ZM33.7413 70.7687L33.5851 71.348H33.5851L33.7413 70.7687ZM49.6007 71.045L49.464 70.4607L49.4637 70.4608L49.6007 71.045ZM58.5907 67.4636L58.8925 67.9822L58.8928 67.982L58.5907 67.4636ZM65.8752 61.6981L65.4399 61.2851L65.4399 61.2851L65.8752 61.6981ZM73.97 20.3325L74.4885 20.0307L74.4885 20.0307L73.97 20.3325ZM51.265 3.19357L51.1162 3.77483L51.1163 3.77484L51.265 3.19357ZM77.7135 48.6194L77.1339 48.4646L77.1338 48.4647L77.7135 48.6194ZM76.3534 52.7388L75.7956 52.5179L75.7955 52.518L76.3534 52.7388ZM68.8309 64.534L69.2661 64.9469L69.2661 64.9469L68.8309 64.534ZM60.6378 71.0188L60.9396 71.5374L60.9399 71.5372L60.6378 71.0188ZM50.5273 75.0459L50.3906 74.4617L50.3903 74.4618L50.5273 75.0459ZM32.6831 74.7364L32.8394 74.1571H32.8394L32.6831 74.7364ZM12.9557 69.4148L12.7994 69.9941H12.7994L12.9557 69.4148ZM9.2357 66.5428L8.71524 66.8413L8.71528 66.8414L9.2357 66.5428ZM8.62515 61.8664L8.04542 61.7117L8.04539 61.7118L8.62515 61.8664ZM9.15425 59.8828L9.73398 60.0374L9.73401 60.0373L9.15425 59.8828ZM7.71065 57.3665L7.86695 56.7873L7.86687 56.7872L7.71065 57.3665ZM5.54051 56.7813L5.38425 57.3606L5.38429 57.3606L5.54051 56.7813ZM1.20998 49.2331L0.630264 49.0785L0.63026 49.0785L1.20998 49.2331ZM6.52407 29.3162L5.95087 29.1388L5.94739 29.1501L5.94435 29.1615L6.52407 29.3162ZM6.67575 28.8259L7.24894 29.0032L7.25233 28.9923L7.2553 28.9812L6.67575 28.8259ZM23.6494 6.80992L23.946 7.33149L23.946 7.33148L23.6494 6.80992ZM41.5372 27.7092L41.3588 28.2821L41.3588 28.2821L41.5372 27.7092ZM46.9262 37.9873L47.4997 38.1638V38.1638L46.9262 37.9873ZM36.7062 43.4068L36.5278 43.9797L36.528 43.9797L36.7062 43.4068ZM31.3168 33.1287L30.7434 32.9522L30.7434 32.9522L31.3168 33.1287ZM41.2353 28.6903L41.0569 29.2632L41.0569 29.2632L41.2353 28.6903ZM32.2924 33.4323L31.719 33.2558L31.7189 33.2559L32.2924 33.4323ZM32.7982 38.9111L33.3296 38.6325L33.3296 38.6324L32.7982 38.9111ZM37.008 42.4257L36.8296 42.9985L36.8299 42.9986L37.008 42.4257ZM45.9506 37.6837L45.3772 37.5071L45.3772 37.5072L45.9506 37.6837ZM46.2351 36.2913L46.8319 36.3531L45.6867 36.0479L46.2351 36.2913ZM40.0679 39.1004L39.8895 39.6733L39.8896 39.6734L40.0679 39.1004ZM36.6997 32.6767L37.2731 32.8532L37.2731 32.8532L36.6997 32.6767ZM42.2743 29.1132L42.1914 29.7074L42.5391 28.5747L42.2743 29.1132ZM61.037 21.5984L61.2154 21.0255L61.2154 21.0255L61.037 21.5984ZM50.8167 27.0178L50.2432 26.8414L50.2432 26.8414L50.8167 27.0178ZM56.2057 37.2959L56.0274 37.8688L56.0276 37.8689L56.2057 37.2959ZM66.4261 31.8765L66.9995 32.053L66.9995 32.0529L66.4261 31.8765ZM60.7352 22.5795L60.5568 23.1523L60.5568 23.1523L60.7352 22.5795ZM61.7739 23.0023L61.6909 23.5966L62.0388 22.464L61.7739 23.0023ZM56.1992 26.5659L55.6258 26.3894L55.6258 26.3894L56.1992 26.5659ZM59.5678 32.9896L59.3894 33.5625L59.3895 33.5625L59.5678 32.9896ZM65.735 30.1805L66.3317 30.2426L65.1866 29.937L65.735 30.1805ZM65.4502 31.5726L64.8769 31.3956L64.8767 31.3961L65.4502 31.5726ZM56.5076 36.3148L56.3292 36.8877L56.3294 36.8878L56.5076 36.3148ZM52.2981 32.8003L52.8295 32.5217L52.8294 32.5216L52.2981 32.8003ZM51.7923 27.3214L51.2188 27.1449L51.2188 27.145L51.7923 27.3214ZM55.5758 47.4153L55.3556 46.8572L55.3554 46.8573L55.5758 47.4153ZM51.2571 45.8944L51.5645 45.3792L51.3145 45.23L51.0426 45.3341L51.2571 45.8944ZM57.7046 43.3612L57.49 42.801L57.2126 42.9072L57.1289 43.1922L57.7046 43.3612ZM59.3421 42.7339L59.9333 42.8363L60.1135 41.7958L59.1275 42.1736L59.3421 42.7339ZM56.4876 49.7933L56.7139 50.349L56.7139 50.349L56.4876 49.7933ZM49.3434 46.6268L49.1289 46.0665L48.0997 46.4604L48.9891 47.1111L49.3434 46.6268ZM73.1893 47.3988C72.8639 48.6161 72.464 49.8274 72.0001 50.9984L73.1157 51.4403C73.5968 50.226 74.0113 48.9706 74.3486 47.7087L73.1893 47.3988ZM69.9259 22.7099C74.2834 30.196 75.4428 38.9614 73.1893 47.3989L74.3487 47.7086C76.6839 38.9652 75.4826 29.8708 70.963 22.1063L69.9259 22.7099ZM50.1088 7.75592C58.5312 9.91107 65.5667 15.2207 69.9259 22.7099L70.963 22.1063C66.4416 14.3383 59.139 8.82795 50.4063 6.59337L50.1088 7.75592ZM25.957 10.9072C33.2525 6.75811 41.8282 5.63712 50.1088 7.75592L50.4063 6.59337C41.8304 4.39901 32.9347 5.55835 25.3638 9.86407L25.957 10.9072ZM11.1903 30.0848C13.3768 21.888 18.6201 15.0796 25.957 10.9072L25.3638 9.86406C17.7459 14.1963 12.2997 21.2699 10.0308 29.7755L11.1903 30.0848ZM11.1639 30.1759L11.1866 30.0979L10.0345 29.7625L10.0117 29.8405L11.1639 30.1759ZM11.0097 30.6751L11.1611 30.1854L10.0146 29.831L9.86322 30.3207L11.0097 30.6751ZM5.73485 50.4523L11.0162 30.6525L9.85671 30.3432L4.57539 50.143L5.73485 50.4523ZM6.75529 52.2343C5.98921 52.0276 5.52777 51.2292 5.73488 50.4522L4.57536 50.1431C4.19936 51.5538 5.0328 53.0125 6.44275 53.3929L6.75529 52.2343ZM8.92517 52.8198L6.75534 52.2343L6.44271 53.3929L8.61255 53.9784L8.92517 52.8198ZM13.6794 61.1016C14.6392 57.5028 12.5105 53.7868 8.9251 52.8198L8.61261 53.9784C11.5541 54.7718 13.3107 57.8273 12.5199 60.7924L13.6794 61.1016ZM13.1503 63.0855L13.6794 61.1016L12.5199 60.7924L11.9908 62.7762L13.1503 63.0855ZM13.2947 64.1912C13.1008 63.8533 13.0497 63.4627 13.1503 63.0855L11.9908 62.7762C11.8087 63.4591 11.9022 64.1754 12.2537 64.7883L13.2947 64.1912ZM14.1702 64.8678C13.798 64.7674 13.4884 64.5287 13.2946 64.1911L12.2538 64.7884C12.6054 65.401 13.1762 65.8425 13.8576 66.0264L14.1702 64.8678ZM33.8976 70.1894L14.1702 64.8678L13.8576 66.0264L33.5851 71.348L33.8976 70.1894ZM49.4637 70.4608C44.3685 71.6553 38.9855 71.5618 33.8976 70.1894L33.5851 71.348C38.8633 72.7717 44.4478 72.8692 49.7376 71.6291L49.4637 70.4608ZM58.289 66.945C55.5215 68.5556 52.5529 69.7381 49.464 70.4607L49.7373 71.6292C52.9433 70.8792 56.0231 69.6521 58.8925 67.9822L58.289 66.945ZM65.4399 61.2851C63.3373 63.5013 60.9311 65.4057 58.2887 66.9452L58.8928 67.982C61.6335 66.3853 64.1294 64.4099 66.3105 62.1111L65.4399 61.2851ZM72 50.9986C70.481 54.8379 68.2742 58.2982 65.4399 61.2851L66.3104 62.1111C69.2506 59.0126 71.5405 55.4217 73.1158 51.4401L72 50.9986ZM74.4885 20.0307C69.4106 11.3069 61.2137 5.11992 51.4137 2.61229L51.1163 3.77484C60.6056 6.20298 68.5356 12.1892 73.4514 20.6344L74.4885 20.0307ZM78.2932 48.7743C80.915 38.9616 79.5643 28.751 74.4885 20.0307L73.4514 20.6344C78.3652 29.0765 79.6739 38.958 77.1339 48.4646L78.2932 48.7743ZM76.9113 52.9597C77.4504 51.5979 77.9154 50.1899 78.2933 48.7741L77.1338 48.4647C76.768 49.8355 76.3176 51.1993 75.7956 52.5179L76.9113 52.9597ZM69.2661 64.9469C72.5686 61.4659 75.1412 57.432 76.9113 52.9596L75.7955 52.518C74.0817 56.8482 71.5923 60.7515 68.3956 64.121L69.2661 64.9469ZM60.9399 71.5372C64.0164 69.7447 66.8177 67.5274 69.2661 64.9469L68.3956 64.121C66.0257 66.6188 63.314 68.7651 60.3358 70.5004L60.9399 71.5372ZM50.6639 75.6301C54.2621 74.7885 57.7192 73.4115 60.9396 71.5374L60.336 70.5003C57.2178 72.3149 53.8718 73.6474 50.3906 74.4617L50.6639 75.6301ZM42.2365 76.6C45.0712 76.6 47.9035 76.2773 50.6642 75.6301L50.3903 74.4618C47.7207 75.0876 44.9804 75.4 42.2365 75.4V76.6ZM32.5268 75.3157C35.6992 76.1715 38.9703 76.6 42.2365 76.6V75.4C39.075 75.4 35.9089 74.9851 32.8394 74.1571L32.5268 75.3157ZM12.7994 69.9941L32.5268 75.3157L32.8394 74.1571L13.1119 68.8355L12.7994 69.9941ZM8.71528 66.8414C9.61225 68.4046 11.0641 69.526 12.7994 69.9941L13.1119 68.8355C11.6856 68.4508 10.4952 67.5322 9.75612 66.2441L8.71528 66.8414ZM8.04539 61.7118C7.58095 63.4542 7.81863 65.2781 8.71524 66.8413L9.75617 66.2442C9.01735 64.9561 8.82184 63.458 9.2049 62.0209L8.04539 61.7118ZM8.57452 59.7281L8.04542 61.7117L9.20488 62.021L9.73398 60.0374L8.57452 59.7281ZM7.55434 57.9458C8.32004 58.1524 8.78164 58.9511 8.57449 59.7283L9.73401 60.0373C10.11 58.6267 9.2767 57.1676 7.86695 56.7873L7.55434 57.9458ZM5.38429 57.3606L7.55443 57.9458L7.86687 56.7872L5.69673 56.202L5.38429 57.3606ZM0.63026 49.0785C-0.329832 52.6773 1.79914 56.3936 5.38425 57.3606L5.69677 56.202C2.75555 55.4087 0.998703 52.3528 1.78971 49.3878L0.63026 49.0785ZM5.94435 29.1615L0.630264 49.0785L1.7897 49.3878L7.10379 29.4708L5.94435 29.1615ZM6.10255 28.6486L5.95087 29.1388L7.09726 29.4935L7.24894 29.0032L6.10255 28.6486ZM23.3527 6.28836C14.7857 11.1603 8.65792 19.1102 6.09619 28.6706L7.2553 28.9812C9.7344 19.7292 15.6595 12.0439 23.946 7.33149L23.3527 6.28836ZM51.4137 2.6123C41.8123 0.155204 31.8446 1.45904 23.3527 6.28837L23.946 7.33148C32.163 2.65844 41.8109 1.3935 51.1162 3.77483L51.4137 2.6123ZM41.7155 27.1363C40.8527 26.8677 39.9792 26.7397 39.1194 26.7397V27.9397C39.8597 27.9397 40.6128 28.0498 41.3588 28.2821L41.7155 27.1363ZM47.4997 38.1638C48.9303 33.5155 46.3441 28.577 41.7155 27.1363L41.3588 28.2821C45.3511 29.5247 47.5904 33.7895 46.3527 37.8108L47.4997 38.1638ZM39.1242 44.3763C42.8691 44.3763 46.3355 41.9464 47.4997 38.1638L46.3527 37.8108C45.3468 41.0793 42.3535 43.1763 39.1242 43.1763V44.3763ZM36.528 43.9797C37.3906 44.248 38.264 44.3763 39.1242 44.3763V43.1763C38.3838 43.1763 37.6306 43.0659 36.8843 42.8339L36.528 43.9797ZM30.7434 32.9522C29.3131 37.6005 31.8989 42.539 36.5278 43.9797L36.8845 42.8339C32.8919 41.5913 30.6529 37.3265 31.8903 33.3051L30.7434 32.9522ZM39.1194 26.7397C35.3742 26.7397 31.9075 29.1696 30.7434 32.9522L31.8903 33.3052C32.8962 30.0367 35.8898 27.9397 39.1194 27.9397V26.7397ZM39.1194 28.9668C39.7725 28.9668 40.4242 29.0661 41.0569 29.2632L41.4137 28.1174C40.6665 27.8847 39.8946 27.7668 39.1194 27.7668V28.9668ZM32.8659 33.6088C33.7215 30.8287 36.2343 28.9668 39.1194 28.9668V27.7668C35.7031 27.7668 32.7283 29.9765 31.719 33.2558L32.8659 33.6088ZM33.3296 38.6324C32.5123 37.0742 32.3481 35.2922 32.8659 33.6086L31.7189 33.2559C31.1082 35.2415 31.3023 37.3507 32.2668 39.1898L33.3296 38.6324ZM37.1864 41.8528C35.5151 41.3324 34.1465 40.1904 33.3296 38.6325L32.2668 39.1898C33.2311 41.0286 34.853 42.383 36.8296 42.9985L37.1864 41.8528ZM39.1242 42.1492C38.4709 42.1492 37.8192 42.0496 37.1862 41.8527L36.8299 42.9986C37.5767 43.2309 38.3485 43.3492 39.1242 43.3492V42.1492ZM45.3772 37.5072C44.5215 40.2873 42.0092 42.1492 39.1242 42.1492V43.3492C42.5406 43.3492 45.5148 41.1394 46.5241 37.8602L45.3772 37.5072ZM45.6383 36.2295C45.5939 36.6577 45.5071 37.0852 45.3772 37.5071L46.5241 37.8603C46.6768 37.364 46.7794 36.8597 46.8319 36.3531L45.6383 36.2295ZM39.8896 39.6734C42.6815 40.5421 45.6242 39.1471 46.7835 36.5347L45.6867 36.0479C44.7691 38.1154 42.4443 39.2115 40.2461 38.5275L39.8896 39.6734ZM36.1262 32.5002C35.1958 35.5229 36.8775 38.7357 39.8895 39.6733L40.2462 38.5276C37.8704 37.7879 36.5357 35.2488 37.2731 32.8532L36.1262 32.5002ZM42.3573 28.5189C39.6354 28.1389 36.9641 29.7775 36.1262 32.5002L37.2731 32.8532C37.9355 30.7007 40.0453 29.4078 42.1914 29.7074L42.3573 28.5189ZM41.0569 29.2632C41.3806 29.364 41.6952 29.497 42.0096 29.6516L42.5391 28.5747C42.1859 28.4011 41.8123 28.2416 41.4137 28.1174L41.0569 29.2632ZM58.619 21.8289C59.3595 21.8289 60.1124 21.9389 60.8587 22.1712L61.2154 21.0255C60.3523 20.7568 59.4791 20.6289 58.619 20.6289V21.8289ZM51.3902 27.1943C52.3961 23.9258 55.3897 21.8289 58.619 21.8289V20.6289C54.8741 20.6289 51.4074 23.0588 50.2432 26.8414L51.3902 27.1943ZM56.3841 36.7231C52.3918 35.4804 50.1528 31.2157 51.3902 27.1943L50.2432 26.8414C48.813 31.4896 51.3987 36.4281 56.0274 37.8688L56.3841 36.7231ZM58.6238 37.0654C57.8836 37.0654 57.1302 36.9551 56.3839 36.723L56.0276 37.8689C56.8902 38.1371 57.7639 38.2654 58.6238 38.2654V37.0654ZM65.8526 31.6999C64.8464 34.9685 61.8534 37.0654 58.6238 37.0654V38.2654C62.369 38.2654 65.835 35.8355 66.9995 32.053L65.8526 31.6999ZM60.8587 22.1712C64.8507 23.4139 67.09 27.6786 65.8526 31.7L66.9995 32.0529C68.4298 27.4046 65.8437 22.4662 61.2154 21.0255L60.8587 22.1712ZM60.9136 22.0066C60.1664 21.7739 59.3945 21.656 58.619 21.656V22.856C59.2724 22.856 59.9241 22.9553 60.5568 23.1523L60.9136 22.0066ZM62.0388 22.464C61.6858 22.2903 61.3122 22.1307 60.9135 22.0066L60.5568 23.1523C60.8805 23.2531 61.195 23.3862 61.509 23.5407L62.0388 22.464ZM56.7727 26.7423C57.4351 24.5898 59.5449 23.297 61.6909 23.5966L61.8569 22.4081C59.135 22.0281 56.4636 23.6667 55.6258 26.3894L56.7727 26.7423ZM59.7461 32.4167C57.37 31.6771 56.0355 29.138 56.7727 26.7423L55.6258 26.3894C54.6957 29.4121 56.3771 32.6248 59.3894 33.5625L59.7461 32.4167ZM65.1866 29.937C64.2687 32.0046 61.9439 33.1006 59.746 32.4167L59.3895 33.5625C62.1811 34.4312 65.1237 33.0362 66.2834 30.4239L65.1866 29.937ZM66.0235 31.7496C66.1768 31.2531 66.279 30.7487 66.3317 30.2426L65.1382 30.1183C65.0935 30.547 65.0069 30.9744 64.8769 31.3956L66.0235 31.7496ZM58.6238 37.2383C62.0401 37.2383 65.0147 35.0286 66.0237 31.749L64.8767 31.3961C64.0213 34.1765 61.5089 36.0383 58.6238 36.0383V37.2383ZM56.3294 36.8878C57.0763 37.12 57.8484 37.2383 58.6238 37.2383V36.0383C57.9708 36.0383 57.3188 35.9388 56.6858 35.7419L56.3294 36.8878ZM51.7667 33.0788C52.7306 34.9177 54.3526 36.2722 56.3292 36.8877L56.686 35.742C55.0147 35.2215 53.6461 34.0796 52.8295 32.5217L51.7667 33.0788ZM51.2188 27.145C50.6078 29.1307 50.8022 31.2399 51.7667 33.079L52.8294 32.5216C52.0122 30.9633 51.8477 29.1813 52.3657 27.4979L51.2188 27.145ZM58.619 21.656C55.203 21.656 52.2282 23.8654 51.2188 27.1449L52.3657 27.4979C53.2214 24.7176 55.7342 22.856 58.619 22.856V21.656ZM55.3554 46.8573C55.3372 46.8645 55.2693 46.8818 55.1248 46.8721C54.9861 46.8627 54.8127 46.8311 54.6083 46.7759C54.1993 46.6653 53.7267 46.4772 53.2667 46.2669C52.8102 46.0582 52.3833 45.8356 52.0694 45.6644C51.9129 45.5791 51.7855 45.507 51.6977 45.4566C51.6538 45.4315 51.6199 45.4117 51.5972 45.3984C51.5859 45.3918 51.5774 45.3868 51.5719 45.3835C51.5691 45.3819 51.5671 45.3807 51.5659 45.38C51.5653 45.3796 51.5648 45.3794 51.5646 45.3792C51.5645 45.3792 51.5644 45.3791 51.5644 45.3791C51.5644 45.3791 51.5644 45.3791 51.5644 45.3791C51.5644 45.3791 51.5645 45.3792 51.2571 45.8944C50.9497 46.4097 50.9497 46.4097 50.9498 46.4098C50.9499 46.4098 50.95 46.4099 50.9501 46.4099C50.9502 46.41 50.9505 46.4102 50.9507 46.4103C50.9513 46.4107 50.9521 46.4111 50.953 46.4117C50.9549 46.4128 50.9576 46.4144 50.961 46.4164C50.9679 46.4205 50.9778 46.4263 50.9906 46.4338C51.0161 46.4488 51.0531 46.4703 51.1003 46.4974C51.1946 46.5515 51.3297 46.6279 51.4949 46.718C51.8244 46.8977 52.2776 47.1342 52.7677 47.3582C53.2542 47.5807 53.7948 47.7991 54.2953 47.9343C54.5458 48.002 54.8012 48.053 55.0443 48.0694C55.2815 48.0853 55.5482 48.0713 55.7962 47.9734L55.3554 46.8573ZM57.7046 43.3612C57.1289 43.1922 57.1289 43.1921 57.129 43.1921C57.129 43.1921 57.129 43.1921 57.129 43.1921C57.129 43.1921 57.1289 43.1922 57.1289 43.1923C57.1288 43.1926 57.1287 43.193 57.1285 43.1937C57.1281 43.1951 57.1274 43.1973 57.1265 43.2004C57.1247 43.2066 57.1218 43.216 57.118 43.2286C57.1104 43.2537 57.099 43.2913 57.0839 43.3396C57.0537 43.4363 57.0092 43.5757 56.9524 43.7448C56.8386 44.0837 56.6769 44.5373 56.4841 45.0009C56.2899 45.4682 56.0714 45.9279 55.847 46.2877C55.7349 46.4674 55.6294 46.609 55.5342 46.7106C55.4349 46.8165 55.3735 46.8501 55.3556 46.8572L55.796 47.9734C56.0434 47.8758 56.2475 47.7043 56.4097 47.5313C56.576 47.3539 56.728 47.1427 56.8652 46.9228C57.1394 46.4832 57.3869 45.9555 57.5922 45.4616C57.799 44.9641 57.9705 44.4826 58.09 44.1269C58.1499 43.9485 58.1971 43.8007 58.2294 43.697C58.2456 43.645 58.2581 43.6041 58.2667 43.5758C58.271 43.5616 58.2743 43.5506 58.2766 43.543C58.2777 43.5391 58.2786 43.5362 58.2792 43.534C58.2795 43.533 58.2798 43.5321 58.28 43.5315C58.28 43.5312 58.2801 43.5309 58.2802 43.5308C58.2802 43.5307 58.2802 43.5305 58.2803 43.5305C58.2803 43.5304 58.2803 43.5303 57.7046 43.3612ZM59.1275 42.1736L57.49 42.801L57.9193 43.9215L59.5568 43.2942L59.1275 42.1736ZM56.7139 50.349C57.0615 50.2075 57.3467 49.948 57.5786 49.6648C57.814 49.3774 58.0237 49.0294 58.2104 48.6584C58.5836 47.9166 58.8974 47.0175 59.1488 46.1652C59.4014 45.3086 59.5972 44.4777 59.7296 43.8626C59.7959 43.5546 59.8466 43.2994 59.8808 43.1207C59.8979 43.0313 59.9109 42.9609 59.9197 42.9126C59.9241 42.8884 59.9274 42.8697 59.9297 42.8569C59.9308 42.8504 59.9317 42.8455 59.9323 42.842C59.9326 42.8403 59.9328 42.839 59.933 42.838C59.9331 42.8375 59.9332 42.8371 59.9332 42.8368C59.9332 42.8367 59.9333 42.8366 59.9333 42.8365C59.9333 42.8364 59.9333 42.8363 59.3421 42.7339C58.7509 42.6315 58.7509 42.6315 58.7509 42.6314C58.7509 42.6315 58.7509 42.6315 58.7509 42.6315C58.7509 42.6316 58.7509 42.6318 58.7508 42.6321C58.7507 42.6327 58.7505 42.6336 58.7503 42.6349C58.7498 42.6376 58.7491 42.6418 58.7481 42.6474C58.7461 42.6586 58.7431 42.6756 58.739 42.698C58.7308 42.743 58.7185 42.8096 58.7022 42.8951C58.6694 43.0661 58.6206 43.3122 58.5564 43.6101C58.428 44.207 58.2393 45.0069 57.9978 45.8258C57.755 46.649 57.465 47.47 57.1384 48.1189C56.9752 48.4433 56.811 48.7082 56.6502 48.9046C56.4859 49.1052 56.3528 49.2004 56.2614 49.2376L56.7139 50.349ZM49.3434 46.6268C48.9891 47.1111 48.9892 47.1111 48.9893 47.1112C48.9894 47.1112 48.9895 47.1113 48.9896 47.1114C48.9898 47.1116 48.9902 47.1118 48.9906 47.1121C48.9914 47.1127 48.9925 47.1135 48.994 47.1146C48.9969 47.1167 49.001 47.1198 49.0064 47.1237C49.0173 47.1315 49.033 47.1429 49.0535 47.1577C49.0945 47.1871 49.1542 47.2298 49.2305 47.2836C49.3832 47.3911 49.6025 47.5434 49.8711 47.7235C50.4073 48.0831 51.1441 48.5567 51.9413 49.0083C52.7346 49.4577 53.607 49.8965 54.4111 50.176C54.8132 50.3158 55.2156 50.422 55.5935 50.4649C55.9661 50.5072 56.3595 50.4933 56.7139 50.349L56.2614 49.2376C56.1635 49.2774 55.9944 49.3027 55.7289 49.2725C55.4688 49.243 55.1575 49.1651 54.8051 49.0425C54.1 48.7974 53.2994 48.3985 52.5328 47.9642C51.7701 47.5322 51.0601 47.076 50.5395 46.7269C50.2796 46.5526 50.0679 46.4056 49.9218 46.3026C49.8487 46.2511 49.792 46.2107 49.754 46.1833C49.7349 46.1696 49.7205 46.1592 49.711 46.1523C49.7063 46.1489 49.7028 46.1463 49.7006 46.1447C49.6994 46.1439 49.6986 46.1433 49.6981 46.1429C49.6979 46.1428 49.6977 46.1426 49.6977 46.1426C49.6976 46.1426 49.6976 46.1426 49.6976 46.1425C49.6976 46.1426 49.6977 46.1426 49.3434 46.6268ZM51.0426 45.3341L49.1289 46.0665L49.5578 47.1872L51.4715 46.4548L51.0426 45.3341Z" fill="#FF1C6D"/>
</svg>
